<svg xmlns="http://www.w3.org/2000/svg" viewBox="0 0 500 500">

<g id="freepik--Shadow--inject-168"><ellipse id="freepik--path--inject-168" cx="250" cy="416.24" rx="193.89" ry="11.32" style="fill:#f5f5f5"></ellipse></g><g id="freepik--character-2--inject-168"><path d="M303,131.33c-6.75,4.11-9.83,11.59-15.5,19.34s-8.5,7.62-8.5,7.62,15.21,13.21,35.94,9.29,17.94-26,7.79-32.5C321.21,128.92,309.55,127.33,303,131.33Z" style="fill:#263238"></path><path d="M292.33,184.17c-.1,1.38-.22,2.56-.39,3.82s-.34,2.47-.54,3.69c-.41,2.46-1,4.88-1.54,7.3a79.76,79.76,0,0,1-4.89,14.2l-.4.86-.19.43-.26.51A18.8,18.8,0,0,1,283,216.9a27.6,27.6,0,0,1-2.59,3.17,52.93,52.93,0,0,1-5.64,5.14,89.81,89.81,0,0,1-12.32,8.13l-2.3-3.45c1.77-1.5,3.58-3.06,5.31-4.63s3.45-3.17,5.06-4.81a59.27,59.27,0,0,0,4.51-5,24.75,24.75,0,0,0,1.75-2.55c.13-.21.24-.41.34-.61a5,5,0,0,0,.27-.59l.13-.3.15-.4.31-.79c.82-2.1,1.51-4.27,2.17-6.46s1.2-4.41,1.69-6.66.9-4.51,1.28-6.78.68-4.61.91-6.73Z" style="fill:#ffb573"></path><path d="M286.64,174.16c-3.38.85-5.74,14.74-5.74,14.74l9.3,6.32s8.91-14,6.32-17.71C293.82,173.64,291.56,172.9,286.64,174.16Z" style="fill:#0FF64E"></path><polygon points="286.94 177.26 284.35 191.25 289.57 194.8 286.94 177.26" style="opacity:0.2"></polygon><path d="M258.32,229.75,252,232.21l7.13,4.3s4.55-2.63,4.44-6l-.71-.4A5.31,5.31,0,0,0,258.32,229.75Z" style="fill:#ffb573"></path><polygon points="248.08 236.87 253.45 241.33 259.14 236.51 252.01 232.21 248.08 236.87" style="fill:#ffb573"></polygon><polygon points="312.93 407.88 304.75 407.88 301.39 388.92 309.58 388.92 312.93 407.88" style="fill:#ffb573"></polygon><path d="M304.11,406.93h9.2a.64.64,0,0,1,.65.56l1.05,7.28a1.31,1.31,0,0,1-1.31,1.45c-3.21-.05-4.75-.24-8.8-.24-2.49,0-9.63.26-13.07.26s-3.62-3.4-2.19-3.71c6.42-1.38,10.94-3.28,13.1-5.1A2.18,2.18,0,0,1,304.11,406.93Z" style="fill:#263238"></path><g style="opacity:0.2"><polygon points="301.39 388.92 303.12 398.7 311.31 398.7 309.59 388.92 301.39 388.92"></polygon></g><path d="M286.64,174.16s-3.9,1.37,3.91,49.41H323.8c-.56-13.53-.68-21.89,5.79-49.66a95.37,95.37,0,0,0-14-1.85,105.44,105.44,0,0,0-15.09,0C294,172.65,286.64,174.16,286.64,174.16Z" style="fill:#0FF64E"></path><path d="M314.08,155.06c-.95,4.85-1.9,13.76,1.49,17,0,0-1.32,4.93-10.35,4.93-9.93,0-4.74-4.93-4.74-4.93,5.41-1.3,5.27-5.32,4.33-9.09Z" style="fill:#ffb573"></path><path d="M315.57,172.06a105.58,105.58,0,0,0-15.1,0l-1,.1c-1.21,2.28-1.51,5.79,1.37,11,0,0,13.25-5.34,16.7-10.92C316.9,172.14,316.24,172.09,315.57,172.06Z" style="fill:#ffb573"></path><path d="M310.3,158.29,304.81,163a14.92,14.92,0,0,1,.47,2.68c2.07-.3,4.91-2.57,5.13-4.74A7.17,7.17,0,0,0,310.3,158.29Z" style="opacity:0.2"></path><path d="M319.32,146.64c-1.85,7.91-2.47,11.3-7.21,14.71-7.12,5.14-16.43,1.14-17-7.17-.5-7.47,2.62-19.16,11-21A11.09,11.09,0,0,1,319.32,146.64Z" style="fill:#ffb573"></path><path d="M316.05,139.5c-2.87,2.2-1.62,10.17,1.94,12.61C323.55,150.78,324.6,132.94,316.05,139.5Z" style="fill:#263238"></path><path d="M317,132c-.17-3.78,1.33-10.72,10.61-4.5s-1.61,10-6.05,9.11S317,132,317,132Z" style="fill:#263238"></path><path d="M306,131.61c-3.22.56-7.29,5.33-8.15,7.28,4.82-.89,18.1,3.22,18.1,3.22s5.94-.67,2.61-5.25S306,131.61,306,131.61Z" style="fill:#263238"></path><path d="M290.55,223.57s-6.46,63.07-5.92,88c.56,26,16.71,85.19,16.71,85.19h11.07S304,339.09,305,313.59c1.07-27.81,9.9-90,9.9-90Z" style="fill:#0FF64E"></path><path d="M290.55,223.57s-6.46,63.07-5.92,88c.56,26,16.71,85.19,16.71,85.19h11.07S304,339.09,305,313.59c1.07-27.81,9.9-90,9.9-90Z" style="opacity:0.30000000000000004"></path><polygon points="313.37 397.2 300.38 397.2 299.43 393.06 313.97 392.55 313.37 397.2" style="fill:#263238"></polygon><path d="M304.89,239.26c-8.17,16.43-1.64,46.4,1.25,57.55,1.48-16.74,4-37.22,5.92-52.25C310.83,236.06,308.66,231.69,304.89,239.26Z" style="opacity:0.2"></path><polygon points="384.28 334.65 381.52 342.36 362.65 338.8 365.41 331.09 384.28 334.65" style="fill:#ffb573"></polygon><path d="M379.29,342.61l.64-9.18a.76.76,0,0,1,.61-.68l7.4-1.48a1.13,1.13,0,0,1,1.37,1.22c-.28,3.2-.57,4.75-.86,8.79-.17,2.48-.41,9.6-.65,13s-3.67,3.82-3.88,2.41c-.94-6.32-2.54-10.72-4.22-12.77A1.91,1.91,0,0,1,379.29,342.61Z" style="fill:#263238"></path><g style="opacity:0.2"><polygon points="362.66 338.8 372.38 340.63 375.14 332.92 365.42 331.09 362.66 338.8"></polygon></g><path d="M299.75,223.57s9.07,65.08,15.23,89.57c6.41,25.47,54.16,27.64,54.16,27.64l4.86-9.94s-27.88-7.42-39.91-24.18c-5.21-27.44-10-83.09-10-83.09Z" style="fill:#0FF64E"></path><path d="M299.75,223.57s9.07,65.08,15.23,89.57c6.41,25.47,54.16,27.64,54.16,27.64l4.86-9.94s-27.88-7.42-39.91-24.18c-5.21-27.44-10-83.09-10-83.09Z" style="opacity:0.30000000000000004"></path><polygon points="374.56 329.91 370.3 342.18 365.89 342.23 370.17 328.38 374.56 329.91" style="fill:#263238"></polygon><path d="M380.52,345.59a3.39,3.39,0,0,1-.65,2,1.2,1.2,0,0,1-1,.4.52.52,0,0,1-.49-.29c-.48-1,1.42-4.33,1.64-4.71a.23.23,0,0,1,.21-.11.16.16,0,0,1,.15.14A13.69,13.69,0,0,1,380.52,345.59Zm-1.81,1.55a.76.76,0,0,0,0,.36.23.23,0,0,0,.21.12.83.83,0,0,0,.64-.26c.48-.53.65-1.87.48-3.67A11.82,11.82,0,0,0,378.71,347.14Z" style="fill:#0FF64E"></path><path d="M380.4,343.07a.19.19,0,0,1,0,.08c-.51,1-2.43,3-3.35,2.94-.22,0-.48-.16-.5-.7a1.6,1.6,0,0,1,.41-1.09,6.23,6.23,0,0,1,3.27-1.41.16.16,0,0,1,.16.07A.11.11,0,0,1,380.4,343.07Zm-3.47,2.15a.37.37,0,0,0,0,.11c0,.35.16.37.2.37.56.06,2.05-1.33,2.72-2.36a5.21,5.21,0,0,0-2.61,1.19A1.1,1.1,0,0,0,376.93,345.22Z" style="fill:#0FF64E"></path><path d="M305.41,146.59c-.11.65-.55,1.12-1,1s-.68-.66-.57-1.31.54-1.12,1-1.05S305.52,145.94,305.41,146.59Z" style="fill:#263238"></path><path d="M298.05,145.34c-.11.65-.54,1.12-1,1s-.68-.65-.57-1.31.55-1.12,1-1S298.16,144.69,298.05,145.34Z" style="fill:#263238"></path><path d="M297.66,144.1l-1.48-.72S296.77,144.74,297.66,144.1Z" style="fill:#263238"></path><path d="M300.92,146.9a18,18,0,0,1-3,3.76,2.86,2.86,0,0,0,2.24.83Z" style="fill:#ed893e"></path><path d="M303.25,154.64a5.56,5.56,0,0,1-1-.09.19.19,0,0,1-.16-.22.2.2,0,0,1,.22-.16,5.25,5.25,0,0,0,4.55-1.3.19.19,0,0,1,.28,0,.2.2,0,0,1,0,.27A5.46,5.46,0,0,1,303.25,154.64Z" style="fill:#263238"></path><path d="M320.24,154.34a6,6,0,0,1-3.61,2.75c-2,.51-3-1.3-2.38-3.18.53-1.69,2.23-4,4.24-3.69A2.68,2.68,0,0,1,320.24,154.34Z" style="fill:#ffb573"></path><path d="M309.41,145.59a.38.38,0,0,1-.36-.27c-.53-1.71-2.72-2.45-2.74-2.45a.38.38,0,0,1-.25-.49.38.38,0,0,1,.49-.25c.1,0,2.6.87,3.24,3a.39.39,0,0,1-.26.49Z" style="fill:#263238"></path><path d="M297.22,141.56a.38.38,0,0,1-.19-.72,3.86,3.86,0,0,1,3.53-.24.39.39,0,1,1-.35.69h0a3.12,3.12,0,0,0-2.8.22A.34.34,0,0,1,297.22,141.56Z" style="fill:#263238"></path><path d="M331.41,180.58a107.66,107.66,0,0,1,12.23,7.76c1.94,1.43,3.88,2.89,5.72,4.51a57.79,57.79,0,0,1,5.36,5.16l.64.7c.1.12.19.21.4.47a6.77,6.77,0,0,1,.48.65,11.35,11.35,0,0,1,1.15,2.33,22,22,0,0,1,1,4.05,51.53,51.53,0,0,1,.49,7.44,100.15,100.15,0,0,1-1.13,14.3l-4.14-.25c-.13-2.27-.26-4.6-.44-6.88s-.36-4.57-.65-6.8a56.83,56.83,0,0,0-1.09-6.46,15.73,15.73,0,0,0-.88-2.69,3.29,3.29,0,0,0-.45-.77,2.1,2.1,0,0,1-.24-.22l-.59-.56a85.29,85.29,0,0,0-10.38-8.22c-1.85-1.29-3.77-2.49-5.68-3.7s-3.9-2.39-5.76-3.47Z" style="fill:#ffb573"></path><path d="M328.79,173.73c3.46.34,11.21,7.63,11.21,7.63l-7.19,14.17s-9.23-5-10-9.5C322,181.38,324.83,173.34,328.79,173.73Z" style="fill:#0FF64E"></path><path d="M301,408.36a3.07,3.07,0,0,1-2-.5,1.09,1.09,0,0,1-.35-.95.62.62,0,0,1,.33-.51c1-.55,4.27,1.11,4.64,1.31a.19.19,0,0,1,.1.2.19.19,0,0,1-.16.16A13.69,13.69,0,0,1,301,408.36Zm-1.46-1.69a.74.74,0,0,0-.36.07.24.24,0,0,0-.13.21.69.69,0,0,0,.22.62c.5.45,1.85.52,3.66.22A10.5,10.5,0,0,0,299.58,406.67Z" style="fill:#0FF64E"></path><path d="M303.58,408.07h-.08c-1-.45-2.91-2.21-2.76-3.14,0-.22.19-.49.73-.55a1.4,1.4,0,0,1,1.07.34c1,.86,1.22,3.06,1.23,3.15a.21.21,0,0,1-.08.18A.2.2,0,0,1,303.58,408.07Zm-1.95-3.32h-.12c-.35,0-.38.18-.39.22-.09.56,1.22,1.95,2.22,2.55a4.54,4.54,0,0,0-1-2.52A1,1,0,0,0,301.63,404.75Z" style="fill:#0FF64E"></path><path d="M305,145.35l-1.49-.72S304.13,146,305,145.35Z" style="fill:#263238"></path><path d="M324.3,221.62l.85,3c.11.24-.16.47-.54.47H290.38c-.3,0-.54-.15-.56-.33l-.3-3c0-.21.24-.38.56-.38h33.68A.61.61,0,0,1,324.3,221.62Z" style="fill:#fafafa"></path><path d="M319.78,225.38h.9c.18,0,.31-.09.3-.2l-.42-3.87c0-.11-.17-.21-.35-.21h-.9c-.18,0-.32.1-.31.21l.43,3.87C319.44,225.29,319.6,225.38,319.78,225.38Z" style="fill:#0FF64E"></path><g style="opacity:0.30000000000000004"><path d="M319.78,225.38h.9c.18,0,.31-.09.3-.2l-.42-3.87c0-.11-.17-.21-.35-.21h-.9c-.18,0-.32.1-.31.21l.43,3.87C319.44,225.29,319.6,225.38,319.78,225.38Z"></path></g><path d="M292.92,225.38h.9c.18,0,.32-.09.3-.2l-.42-3.87c0-.11-.17-.21-.35-.21h-.9c-.18,0-.32.1-.3.21l.42,3.87C292.58,225.29,292.74,225.38,292.92,225.38Z" style="fill:#0FF64E"></path><path d="M292.92,225.38h.9c.18,0,.32-.09.3-.2l-.42-3.87c0-.11-.17-.21-.35-.21h-.9c-.18,0-.32.1-.3.21l.42,3.87C292.58,225.29,292.74,225.38,292.92,225.38Z" style="opacity:0.30000000000000004"></path><path d="M306.35,225.38h.9c.18,0,.32-.09.3-.2l-.42-3.87c0-.11-.17-.21-.35-.21h-.9c-.18,0-.32.1-.31.21l.43,3.87C306,225.29,306.17,225.38,306.35,225.38Z" style="fill:#0FF64E"></path><path d="M306.35,225.38h.9c.18,0,.32-.09.3-.2l-.42-3.87c0-.11-.17-.21-.35-.21h-.9c-.18,0-.32.1-.31.21l.43,3.87C306,225.29,306.17,225.38,306.35,225.38Z" style="opacity:0.30000000000000004"></path><path d="M353.31,227.2l-2.63,8.44,7.67-3.23s.55-5.22-2.26-7.14Z" style="fill:#ffb573"></path><polygon points="353.11 242.08 359.39 239.03 358.35 232.41 350.68 235.64 353.11 242.08" style="fill:#ffb573"></polygon></g><g id="freepik--character-1--inject-168"><polygon points="198.85 407.55 207.15 407.63 209.41 388.43 201.11 388.36 198.85 407.55" style="fill:#ff8b7b"></polygon><path d="M207.16,406.67l-9.06-.08a.78.78,0,0,0-.75.56l-2.19,7.35a1.13,1.13,0,0,0,1.09,1.49c3.27,0,8-.18,12.12-.14,4.8,0,5.79.34,11.42.39,3.41,0,4.61-3.41,3.21-3.73-6.38-1.48-8.53-1.67-13.88-5.18A3.63,3.63,0,0,0,207.16,406.67Z" style="fill:#263238"></path><polygon points="209.41 388.44 208.24 398.33 199.94 398.26 201.11 388.36 209.41 388.44" style="opacity:0.2"></polygon><path d="M210.59,408.15a13.65,13.65,0,0,1-2.66-.32.2.2,0,0,1-.15-.17.18.18,0,0,1,.11-.2c.39-.2,3.88-1.87,4.83-1.27a.59.59,0,0,1,.28.53,1.15,1.15,0,0,1-.44.94A3.22,3.22,0,0,1,210.59,408.15Zm-2-.59c1.8.31,3.16.24,3.71-.2a.77.77,0,0,0,.3-.64.21.21,0,0,0-.1-.2C212,406.2,210,406.91,208.6,407.56Z" style="fill:#0FF64E"></path><path d="M208,407.83a.19.19,0,0,1-.12,0,.23.23,0,0,1-.07-.19c0-.15.65-3.72,2.63-3.5.52.06.67.32.7.53.13.94-2,2.73-3.06,3.18A.11.11,0,0,1,208,407.83Zm2.27-3.34c-1.19,0-1.78,1.94-2,2.79,1.1-.62,2.55-2,2.47-2.59,0,0,0-.16-.35-.2Z" style="fill:#0FF64E"></path><path d="M224.29,177.7c.71,5.2,1.49,10.59,2.34,15.84s1.78,10.52,3,15.59c.13.64.29,1.26.45,1.88l.42,1.68a6.69,6.69,0,0,0,1,2,34.1,34.1,0,0,0,4.62,5.24,154.93,154.93,0,0,0,12.1,10l-3,5.62a70.08,70.08,0,0,1-7.86-3.46,68.43,68.43,0,0,1-7.5-4.42,37.17,37.17,0,0,1-7.13-6.17,17.08,17.08,0,0,1-3.13-5c-.26-.63-.31-.84-.44-1.22l-.35-1c-.24-.69-.47-1.38-.67-2.06A159.05,159.05,0,0,1,214,195.78c-1.06-5.52-1.91-11-2.5-16.63Z" style="fill:#ff8b7b"></path><path d="M208.67,180.09c-.13,9.48,3.57,23,3.57,23l13.17-4,5.42-1.64a74.48,74.48,0,0,0-3.21-18.57c-3.21-10.33-12.14-13.39-17.29-6.28C209.17,174.24,208.71,176.94,208.67,180.09Z" style="fill:#263238"></path><path d="M208.67,180.09c-.13,9.48,3.57,23,3.57,23l13.17-4a71.79,71.79,0,0,0-2.33-10C220.42,180.5,213.78,176.94,208.67,180.09Z" style="opacity:0.2"></path><path d="M247.74,229.94l5.86,2.81L251,240.92s-5.61-2.47-7.46-7.32Z" style="fill:#ff8b7b"></path><polygon points="259.47 237.15 255.53 243.86 250.97 240.92 253.6 232.75 259.47 237.15" style="fill:#ff8b7b"></polygon><path d="M213.87,240.71s9.44,46.08,11.06,71.62c1.68,26.57-12.43,81.18-12.43,81.18l-15-.32s5.06-57.3,1.86-83.53c-3.48-28.59-10.92-71.17-10.92-71.17Z" style="fill:#0FF64E"></path><path d="M195.21,250c-1.92-1.82-3.23.27-4.1,4.14,1.65,10,3.81,23.44,5.7,36.52C202.84,278.8,201.42,255.89,195.21,250Z" style="opacity:0.2"></path><polygon points="195.67 393.86 213.29 394.22 214.59 388.36 195.89 388.32 195.67 393.86" style="fill:#0FF64E"></polygon><polygon points="195.67 393.86 213.29 394.22 214.59 388.36 195.89 388.32 195.67 393.86" style="opacity:0.4"></polygon><polygon points="134.36 383.21 141.2 387.9 153.8 373.25 146.96 368.55 134.36 383.21" style="fill:#ff8b7b"></polygon><path d="M142.27,387.05,135,381.66a.78.78,0,0,0-.93,0l-6.1,4.67a1.13,1.13,0,0,0,0,1.84c2.67,1.9,6.59,4.56,9.89,7,3.87,2.86,3.83,2.8,8.36,6.15,2.74,2,5.73,0,4.78-1.13-4.3-4.95-5.26-5.49-7.53-11.47A3.57,3.57,0,0,0,142.27,387.05Z" style="fill:#263238"></path><polygon points="153.8 373.25 147.3 380.81 140.46 376.11 146.96 368.55 153.8 373.25" style="opacity:0.2"></polygon><path d="M144.17,390.26a13,13,0,0,1-2-1.82.2.2,0,0,1,0-.23.21.21,0,0,1,.21-.1c.43.08,4.23.77,4.65,1.81a.6.6,0,0,1-.08.6,1.19,1.19,0,0,1-.91.51A3.25,3.25,0,0,1,144.17,390.26Zm-1.26-1.65c1.26,1.31,2.41,2.06,3.11,2a.76.76,0,0,0,.62-.34.22.22,0,0,0,0-.22C146.45,389.51,144.44,388.93,142.91,388.61Z" style="fill:#0FF64E"></path><path d="M142.24,388.47a.28.28,0,0,1-.08-.11.19.19,0,0,1,.05-.19c.11-.11,2.72-2.63,4.19-1.29.38.35.35.65.25.84-.44.84-3.22,1-4.34.78Zm3.8-1.38c-1-.7-2.59.52-3.25,1.09,1.25.14,3.25-.14,3.51-.64,0,0,.08-.15-.17-.37Z" style="fill:#0FF64E"></path><path d="M198.44,239.36s-3,44.45-5.8,69.89c-2.95,26.46-39.12,69.94-39.12,69.94l-12.24-8.64s25.26-42,26.67-68.36c1.52-28.76,1.71-65.35,1.71-65.35Z" style="fill:#0FF64E"></path><polygon points="139.04 370.83 153.05 380.81 156.96 376.69 142.09 365.29 139.04 370.83" style="fill:#0FF64E"></polygon><polygon points="139.04 370.83 153.05 380.81 156.96 376.69 142.09 365.29 139.04 370.83" style="opacity:0.4"></polygon><path d="M219.64,169.22s7.57,25.82-5.77,71.49l-44.21-3.87c.29-6.82,7.46-39.55,3.71-72.1a114.92,114.92,0,0,1,15-.57,164.3,164.3,0,0,1,18.79,1.64A82.69,82.69,0,0,1,219.64,169.22Z" style="fill:#263238"></path><path d="M182.19,181.41l-7.74,4.83c0,5.69-.32,11.2-.71,16.36C178.58,198.34,181.66,190.13,182.19,181.41Z" style="opacity:0.2"></path><path d="M192.05,143.17c.66,6.15.87,17.33-3.71,21,0,0,1.11,6.31,12.35,7.26,9,.76,6.44-5.62,6.44-5.62-6.6-2.2-6-7.19-4.4-11.78Z" style="fill:#ff8b7b"></path><path d="M194.12,178.43a.27.27,0,0,1-.16-.06c-.06-.05-6.84-5.74-8.31-12.71a.24.24,0,0,1,.19-.29.25.25,0,0,1,.3.19c1.27,6,6.65,11.11,7.89,12.21a8.23,8.23,0,0,1,7.23-4.93h0a.26.26,0,0,1,.25.26.28.28,0,0,1-.26.24,7.6,7.6,0,0,0-6.91,4.94.24.24,0,0,1-.17.14Z" style="fill:#fff"></path><path d="M208.46,179.08h-.06a.27.27,0,0,1-.19-.2,8,8,0,0,0-4.69-5.46.24.24,0,0,1-.13-.33.25.25,0,0,1,.32-.13,8.51,8.51,0,0,1,4.86,5.3c4.83-6.87,1.21-10.58,1.05-10.73a.25.25,0,0,1,0-.36.24.24,0,0,1,.35,0s4.25,4.31-1.31,11.81A.26.26,0,0,1,208.46,179.08Z" style="fill:#fff"></path><path d="M196.4,147.6l6.32,6.42a19,19,0,0,0-.87,3.29c-2.54-.6-5.83-3.74-5.87-6.46A9.16,9.16,0,0,1,196.4,147.6Z" style="opacity:0.2"></path><path d="M212.8,127.08c3.93,2,5.21,13-.21,15S205.37,123.31,212.8,127.08Z" style="fill:#263238"></path><path d="M192.13,134c-.21,8.24-.76,13,3,17.61,5.67,6.87,16.1,4,18.77-4,2.4-7.2,2.35-19.46-5.38-23.42A11.23,11.23,0,0,0,192.13,134Z" style="fill:#ff8b7b"></path><path d="M204.35,137.38c-.06.67.25,1.24.68,1.28s.84-.47.9-1.14-.25-1.24-.69-1.28S204.41,136.71,204.35,137.38Z" style="fill:#263238"></path><path d="M211.89,138c-.06.67.24,1.24.68,1.28s.84-.47.89-1.14-.24-1.24-.68-1.28S211.94,137.37,211.89,138Z" style="fill:#263238"></path><path d="M209.46,138.16a23.86,23.86,0,0,0,2.69,6,3.86,3.86,0,0,1-3.24.32Z" style="fill:#ff5652"></path><path d="M206.81,146.13h0a5.61,5.61,0,0,1-4.44-2.64.2.2,0,0,1,.08-.27.19.19,0,0,1,.26.08,5.33,5.33,0,0,0,4.13,2.44.2.2,0,0,1,.18.21A.19.19,0,0,1,206.81,146.13Z" style="fill:#263238"></path><path d="M202.3,134.75a.37.37,0,0,1-.24-.1.39.39,0,0,1,0-.55,3.9,3.9,0,0,1,3.33-1.34.39.39,0,0,1,.33.45.4.4,0,0,1-.45.33h0a3.11,3.11,0,0,0-2.62,1.08A.37.37,0,0,1,202.3,134.75Z" style="fill:#263238"></path><path d="M215.42,135.74a.39.39,0,0,1-.34-.25,3.12,3.12,0,0,0-2.05-2,.39.39,0,0,1,.16-.77,3.86,3.86,0,0,1,2.62,2.45.39.39,0,0,1-.22.51A.33.33,0,0,1,215.42,135.74Z" style="fill:#263238"></path><path d="M181.51,178.38c-1.71,2.23-3.56,4.63-5.28,7s-3.48,4.77-5.15,7.19a163.36,163.36,0,0,0-9.28,14.72l-1,1.83a7,7,0,0,0-.49,1.15,10.18,10.18,0,0,0-.48,2.87,22.92,22.92,0,0,0,1.26,7.21,70.14,70.14,0,0,0,7.48,15.15l-4.78,4.2a56.62,56.62,0,0,1-6.51-7.21,49.54,49.54,0,0,1-5.26-8.41,30.48,30.48,0,0,1-3.09-10.39,20.31,20.31,0,0,1,.33-6.17,18.23,18.23,0,0,1,1-3.15l1-2.27c1.32-3,2.79-5.8,4.35-8.55s3.19-5.44,4.88-8.08,3.46-5.2,5.3-7.72,3.68-5,5.77-7.47Z" style="fill:#ff8b7b"></path><path d="M173.37,164.74c-7.84,1.17-19,25.18-19,25.18l17,9.76a56.74,56.74,0,0,0,11.78-16.52C187.46,173.32,181.78,163.49,173.37,164.74Z" style="fill:#263238"></path><path d="M166.32,234l8.9.65-6.08,8.62s-6.24-2-6.61-5.18Z" style="fill:#ff8b7b"></path><polygon points="180.44 240.27 175.07 247.17 169.14 243.25 175.22 234.63 180.44 240.27" style="fill:#ff8b7b"></polygon><path d="M187.5,124.38c-6.08,6.54,2.24,20.71,5.71,20.7s5.24-12.83,3.5-16.17c1.81,1,17.95,1.34,19.54.27,2.92-2,5.39-8.3-3.57-11.35,0,2.25-2.59,3.13-10,.8C193.57,115.73,182.75,119.42,187.5,124.38Z" style="fill:#263238"></path><path d="M188.34,124.58a3.93,3.93,0,0,0-5.21,1.09A24.19,24.19,0,0,1,188.34,124.58Z" style="fill:#263238"></path><path d="M187.64,142.71a7.82,7.82,0,0,0,4.56,3.86c2.62.83,4-1.5,3.36-4-.59-2.27-2.67-5.42-5.33-5.15S186.5,140.44,187.64,142.71Z" style="fill:#ff8b7b"></path></g><g id="freepik--Hearts--inject-168"><path d="M261.13,87.09a10.61,10.61,0,0,0-14.61-3.4,10.6,10.6,0,1,0-18,11.2l11.2,18,18-11.2A10.61,10.61,0,0,0,261.13,87.09Z" style="fill:#0FF64E"></path><path d="M278.81,111.68a9.1,9.1,0,0,0-12.7,2.15,9.12,9.12,0,0,0-10.56,14.86l14.86,10.55L281,124.39A9.1,9.1,0,0,0,278.81,111.68Z" style="fill:#0FF64E"></path><path d="M278.81,111.68a9.1,9.1,0,0,0-12.7,2.15,9.12,9.12,0,0,0-10.56,14.86l14.86,10.55L281,124.39A9.1,9.1,0,0,0,278.81,111.68Z" style="fill:#fff;opacity:0.5"></path><path d="M254.91,148.61a6.39,6.39,0,0,0-8-4.15,6.38,6.38,0,0,0-12.16,3.86l3.85,12.16,12.16-3.86A6.38,6.38,0,0,0,254.91,148.61Z" style="fill:#0FF64E"></path></g>
    
</svg>