<svg xmlns="http://www.w3.org/2000/svg" viewBox="0 0 500 500">
   <g id="freepik--Floor--inject-98"><line x1="465.57" y1="452.24" x2="476.62" y2="452.24" style="fill:none;stroke:#263238;stroke-linecap:round;stroke-linejoin:round"></line><line x1="21.96" y1="452.24" x2="455.44" y2="452.24" style="fill:none;stroke:#263238;stroke-linecap:round;stroke-linejoin:round"></line></g><g id="freepik--Clouds--inject-98"><path d="M153.23,73.46c-1.41-1.47-3.86-2.81-8.11-2.92-9.55-.23-7,6.53-9.55,8.16s-3.26-.93-5.83.7-1.4,4.89-3.49,5.36-4.9-2.1-7.46-.47-2.56,3-3.73,3-3.49-.93-4.89,0-3,2.1-3,2.1h25" style="fill:none;stroke:#263238;stroke-linecap:round;stroke-linejoin:round"></path><path d="M155.86,77.63l-.72-.33a6.25,6.25,0,0,0-.86-2.46" style="fill:none;stroke:#263238;stroke-linecap:round;stroke-linejoin:round"></path><path d="M135.36,89.42h30.73s.7-2.1-1.87-3.5-3.72-.23-4.65-1.4,1.85-3.55-2.49-6.23" style="fill:none;stroke:#263238;stroke-linecap:round;stroke-linejoin:round"></path><path d="M403.48,137.18c-1.41-1.47-3.87-2.82-8.11-2.92-9.56-.23-7,6.52-9.56,8.15s-3.26-.93-5.82.7-1.4,4.9-3.5,5.36-4.89-2.1-7.45-.46-2.56,3-3.73,3-3.49-.93-4.89,0-3,2.1-3,2.1h25" style="fill:none;stroke:#263238;stroke-linecap:round;stroke-linejoin:round"></path><path d="M406.11,141.35l-.73-.33a6.32,6.32,0,0,0-.85-2.46" style="fill:none;stroke:#263238;stroke-linecap:round;stroke-linejoin:round"></path><path d="M385.61,153.13h30.72s.7-2.1-1.86-3.49-3.73-.24-4.66-1.4,1.85-3.55-2.49-6.23" style="fill:none;stroke:#263238;stroke-linecap:round;stroke-linejoin:round"></path><path d="M284.51,89.42h60.92s2.08-6.23-5.54-10.38-11.07-.7-13.83-4.16,7.61-12.45-13.15-21.45c0,0-1.39-19.37-29.76-20.06-12.24-.3-17.78,3.27-20.74,7.81" style="fill:none;stroke:#263238;stroke-linecap:round;stroke-linejoin:round"></path><line x1="265.92" y1="89.42" x2="276.06" y2="89.42" style="fill:none;stroke:#263238;stroke-linecap:round;stroke-linejoin:round"></line><path d="M258.72,50.73c-.87,3-1.81,5.5-3.94,6.85-7.61,4.85-9.68-2.76-17.3,2.08s-4.15,14.53-10.37,15.92S212.57,69.35,205,74.19s-7.61,9-11.07,9-10.38-2.77-14.53,0-9,6.23-9,6.23h77.81" style="fill:none;stroke:#263238;stroke-linecap:round;stroke-linejoin:round"></path></g><g id="freepik--Trees--inject-98"><path d="M397.74,451.53H482c-1.62-10.31-8.24-8.5-9.12-24.46-.44-8.05,7-18,6.36-28.56-.53-8.71-9.11-17.63-9.78-27.58-.6-9,6.72-19,6-28.64-.67-9.15-9.37-17.93-10.14-27.45-.75-9.28,6.42-19.35,5.58-28.73s-9.7-18-10.64-27.26c-1-9.51,6-19.74,4.91-28.85-1.12-9.66-10.24-18-11.47-26.9-1.38-9.91,5.08-20.5,3.56-29-1.85-10.49-11.6-18.07-13.66-25.8-3.82-14.41-3.34-28.3-7.86-29.2-4.82-1-5.92,12.65-9.57,27.86-1.84,7.65-11.38,15.39-12.95,25.88-1.27,8.49,5.47,18.82,4.37,28.69-1,8.84-9.87,17.34-10.74,26.94-.81,9,6.4,19,5.69,28.45-.69,9.19-9.31,17.95-9.91,27.27s6.84,19.1,6.34,28.31c-.52,9.44-9,18.36-9.42,27.44-.46,9.61,7.12,19.3,6.75,28.21-.41,9.87-8.76,18.92-9.06,27.55-.38,10.48,7.32,20.15,7.08,28.13-.51,17.32-8.44,13.73-8.73,27.67Z" style="fill:#0FF64E"></path><path d="M397.74,451.53H482c-1.62-10.31-8.24-8.5-9.12-24.46-.44-8.05,7-18,6.36-28.56-.53-8.71-9.11-17.63-9.78-27.58-.6-9,6.72-19,6-28.64-.67-9.15-9.37-17.93-10.14-27.45-.75-9.28,6.42-19.35,5.58-28.73s-9.7-18-10.64-27.26c-1-9.51,6-19.74,4.91-28.85-1.12-9.66-10.24-18-11.47-26.9-1.38-9.91,5.08-20.5,3.56-29-1.85-10.49-11.6-18.07-13.66-25.8-3.82-14.41-3.34-28.3-7.86-29.2-4.82-1-5.92,12.65-9.57,27.86-1.84,7.65-11.38,15.39-12.95,25.88-1.27,8.49,5.47,18.82,4.37,28.69-1,8.84-9.87,17.34-10.74,26.94-.81,9,6.4,19,5.69,28.45-.69,9.19-9.31,17.95-9.91,27.27s6.84,19.1,6.34,28.31c-.52,9.44-9,18.36-9.42,27.44-.46,9.61,7.12,19.3,6.75,28.21-.41,9.87-8.76,18.92-9.06,27.55-.38,10.48,7.32,20.15,7.08,28.13-.51,17.32-8.44,13.73-8.73,27.67Z" style="fill:#fff;opacity:0.30000000000000004"></path><path d="M397.74,451.53H482c-1.62-10.31-8.24-8.5-9.12-24.46-.44-8.05,7-18,6.36-28.56-.53-8.71-9.11-17.63-9.78-27.58-.6-9,6.72-19,6-28.64-.67-9.15-9.37-17.93-10.14-27.45-.75-9.28,6.42-19.35,5.58-28.73s-9.7-18-10.64-27.26c-1-9.51,6-19.74,4.91-28.85-1.12-9.66-10.24-18-11.47-26.9-1.38-9.91,5.08-20.5,3.56-29-1.85-10.49-11.6-18.07-13.66-25.8-3.82-14.41-3.34-28.3-7.86-29.2-4.82-1-5.92,12.65-9.57,27.86-1.84,7.65-11.38,15.39-12.95,25.88-1.27,8.49,5.47,18.82,4.37,28.69-1,8.84-9.87,17.34-10.74,26.94-.81,9,6.4,19,5.69,28.45-.69,9.19-9.31,17.95-9.91,27.27s6.84,19.1,6.34,28.31c-.52,9.44-9,18.36-9.42,27.44-.46,9.61,7.12,19.3,6.75,28.21-.41,9.87-8.76,18.92-9.06,27.55-.38,10.48,7.32,20.15,7.08,28.13-.51,17.32-8.44,13.73-8.73,27.67Z" style="opacity:0.30000000000000004"></path><line x1="433.91" y1="146.74" x2="433.91" y2="447.64" style="fill:none;stroke:#263238;stroke-linecap:round;stroke-linejoin:round"></line><polyline points="447.07 178.28 433.35 190.13 422.13 175.17" style="fill:none;stroke:#263238;stroke-linecap:round;stroke-linejoin:round"></polyline><polyline points="447.07 230.66 433.35 242.5 422.13 227.54" style="fill:none;stroke:#263238;stroke-linecap:round;stroke-linejoin:round"></polyline><polyline points="447.07 279.91 433.35 291.76 422.13 276.8" style="fill:none;stroke:#263238;stroke-linecap:round;stroke-linejoin:round"></polyline><polyline points="447.07 338.52 433.35 350.37 422.13 335.4" style="fill:none;stroke:#263238;stroke-linecap:round;stroke-linejoin:round"></polyline><polyline points="447.07 397.76 433.35 409.6 422.13 394.64" style="fill:none;stroke:#263238;stroke-linecap:round;stroke-linejoin:round"></polyline><path d="M271.47,451.53H381.14c-2.1-13.42-10.72-11.06-11.86-31.84-.58-10.47,9.11-23.42,8.27-37.18-.69-11.32-11.86-22.94-12.72-35.89-.79-11.7,8.75-24.67,7.82-37.28-.87-11.91-12.19-23.34-13.2-35.73-1-12.08,8.36-25.19,7.26-37.4s-12.62-23.44-13.84-35.48c-1.26-12.37,7.77-25.7,6.39-37.55-1.47-12.57-13.33-23.43-14.94-35-1.79-12.89,6.61-26.67,4.65-37.81-2.41-13.65-15.11-23.52-17.79-33.58-5-18.76-4.35-36.83-10.23-38-6.28-1.26-7.71,16.46-12.47,36.27-2.38,10-14.8,20-16.85,33.68-1.65,11.06,7.13,24.5,5.69,37.35-1.29,11.5-12.85,22.56-14,35.07-1.06,11.76,8.32,24.73,7.4,37-.9,12-12.12,23.35-12.9,35.49s8.91,24.87,8.25,36.86c-.68,12.28-11.7,23.88-12.26,35.71-.6,12.5,9.27,25.11,8.79,36.72-.53,12.85-11.4,24.63-11.8,35.86-.49,13.64,9.53,26.23,9.22,36.61-.67,22.54-11,17.87-11.36,36Z" style="fill:#0FF64E"></path><path d="M271.47,451.53H381.14c-2.1-13.42-10.72-11.06-11.86-31.84-.58-10.47,9.11-23.42,8.27-37.18-.69-11.32-11.86-22.94-12.72-35.89-.79-11.7,8.75-24.67,7.82-37.28-.87-11.91-12.19-23.34-13.2-35.73-1-12.08,8.36-25.19,7.26-37.4s-12.62-23.44-13.84-35.48c-1.26-12.37,7.77-25.7,6.39-37.55-1.47-12.57-13.33-23.43-14.94-35-1.79-12.89,6.61-26.67,4.65-37.81-2.41-13.65-15.11-23.52-17.79-33.58-5-18.76-4.35-36.83-10.23-38-6.28-1.26-7.71,16.46-12.47,36.27-2.38,10-14.8,20-16.85,33.68-1.65,11.06,7.13,24.5,5.69,37.35-1.29,11.5-12.85,22.56-14,35.07-1.06,11.76,8.32,24.73,7.4,37-.9,12-12.12,23.35-12.9,35.49s8.91,24.87,8.25,36.86c-.68,12.28-11.7,23.88-12.26,35.71-.6,12.5,9.27,25.11,8.79,36.72-.53,12.85-11.4,24.63-11.8,35.86-.49,13.64,9.53,26.23,9.22,36.61-.67,22.54-11,17.87-11.36,36Z" style="fill:#fff;opacity:0.30000000000000004"></path><line x1="318.55" y1="54.8" x2="318.55" y2="446.47" style="fill:none;stroke:#263238;stroke-linecap:round;stroke-linejoin:round"></line><polyline points="335.68 95.86 317.82 111.28 303.21 91.81" style="fill:none;stroke:#263238;stroke-linecap:round;stroke-linejoin:round"></polyline><polyline points="335.68 164.03 317.82 179.45 303.21 159.98" style="fill:none;stroke:#263238;stroke-linecap:round;stroke-linejoin:round"></polyline><polyline points="335.68 228.15 317.82 243.57 303.21 224.09" style="fill:none;stroke:#263238;stroke-linecap:round;stroke-linejoin:round"></polyline><polyline points="335.68 304.44 317.82 319.86 303.21 300.38" style="fill:none;stroke:#263238;stroke-linecap:round;stroke-linejoin:round"></polyline><polyline points="335.68 381.54 317.82 396.96 303.21 377.48" style="fill:none;stroke:#263238;stroke-linecap:round;stroke-linejoin:round"></polyline></g><g id="freepik--Plants--inject-98"><path d="M35.48,369.8c2.52,1.11,8.69,1,8.69,1s-1.32-4-1.44-4.29c-1.35-2.83-5.63-7.5-9.12-7a4.16,4.16,0,0,0-3.34,5.21C30.85,367.07,33.33,368.87,35.48,369.8Z" style="fill:#0FF64E"></path><path d="M37.61,387.67c2.61.39,8.12-1.21,8.56-1.34a73.3,73.3,0,0,0,3.34,9.24c.75,1.75,1.57,3.5,2.41,5.23-.5-.73-1-1.39-1-1.47-2-2.37-7.42-5.75-10.65-4.38a4.16,4.16,0,0,0-1.84,5.91c1.19,2.17,4.05,3.25,6.37,3.59s7.08-.93,8.32-1.28c.33.66.65,1.33,1,2,1.59,3.18,3.2,6.34,4.68,9.49.52,1.11,1,2.22,1.47,3.33-.45-.65-.83-1.2-.9-1.28-2-2.37-7.41-5.75-10.65-4.38a4.16,4.16,0,0,0-1.84,5.91c1.19,2.18,4,3.25,6.37,3.59s6.62-.8,8.1-1.21c.45,1.15.91,2.3,1.3,3.44.25.78.54,1.52.75,2.32s.43,1.56.65,2.33c.36,1.51.74,3.05,1,4.53.23,1,.43,2,.63,3-.51-1.11-1.54-3.27-1.65-3.44-1.67-2.65-6.46-6.81-9.87-5.94a4.16,4.16,0,0,0-2.71,5.56c.85,2.33,3.51,3.83,5.75,4.52,2.47.75,7.94.06,8.62,0,.33,1.63.63,3.22.89,4.73.59,3.32,1,6.3,1.37,8.83h2.3c-.4-2.61-.93-5.72-1.62-9.21-.33-1.66-.71-3.43-1.12-5.24a42.94,42.94,0,0,0,4.81-2.26c1.8,1.95,6.41,4.23,7,4.52-.63,1.54-1.26,3-1.87,4.44-1.27,2.93-2.48,5.53-3.55,7.75h2.49c.92-2,1.93-4.37,3-6.94.64-1.57,1.3-3.25,2-5,.66.14,6.07,1.24,8.59.67,2.29-.51,5.06-1.81,6.08-4.07a4.17,4.17,0,0,0-2.3-5.75c-3.33-1.12-8.41,2.67-10.28,5.19-.11.15-1.12,1.9-1.74,3,.27-.71.53-1.4.79-2.14.54-1.45,1-2.91,1.55-4.48.23-.77.47-1.54.7-2.33s.41-1.61.63-2.43c.45-1.9.82-3.85,1.14-5.82,1.27.46,5.81,2,8.16,1.87s5.27-1,6.62-3.1a4.15,4.15,0,0,0-1.4-6c-3.12-1.61-8.72,1.36-10.94,3.57-.14.14-1.56,1.91-2.32,2.89.19-1.19.38-2.37.53-3.58.43-3.48.76-7,1.1-10.55.11-1.09.23-2.16.34-3.24.45.17,5.8,2.16,8.43,2,2.34-.17,5.27-1,6.63-3.11a4.17,4.17,0,0,0-1.4-6c-3.13-1.61-8.73,1.36-11,3.58-.17.16-2.2,2.71-2.69,3.38.25-2.37.52-4.74.89-7.06a73.32,73.32,0,0,1,2-9.28c.21.08,5.79,2.19,8.48,2,2.34-.17,5.27-1,6.63-3.11a4.17,4.17,0,0,0-1.4-6c-3.13-1.61-8.73,1.36-11,3.58-.17.17-2.36,2.91-2.73,3.44.06-.18.09-.37.14-.54a54.16,54.16,0,0,1,3.68-8.79c.8-1.56,1.65-3,2.51-4.4,1,.49,5.59,2.72,8,2.82s5.35-.44,6.93-2.36a4.15,4.15,0,0,0-.73-6.14c-2.93-1.95-8.82.39-11.27,2.34-.14.11-1.37,1.34-2.26,2.25.39-.62.79-1.27,1.19-1.86,1.47-2.21,3-4.15,4.28-5.86.76-1,1.47-1.81,2.14-2.61,1.23,0,6.21-.17,8.38-1.19s4.55-2.86,5.06-5.29a4.16,4.16,0,0,0-3.47-5.12c-3.5-.37-7.65,4.42-8.93,7.28-.11.25-1.39,4.33-1.33,4.33h.08c-.66.76-1.36,1.57-2.11,2.47-1.37,1.68-2.9,3.59-4.42,5.78A74.21,74.21,0,0,0,95,376a53.37,53.37,0,0,0-3.92,8.82l0,.11c0-1,0-3.91-.06-4.13-.4-3.11-3-8.89-6.47-9.53a4.15,4.15,0,0,0-4.79,3.91c-.21,2.47,1.59,4.95,3.34,6.51,2,1.76,7.44,3.47,7.88,3.6a74,74,0,0,0-2.32,9.55c-.33,1.88-.61,3.79-.87,5.7,0-.89,0-1.69,0-1.8-.41-3.11-3-8.89-6.47-9.53a4.16,4.16,0,0,0-4.8,3.91c-.2,2.48,1.59,4.95,3.34,6.51s6.41,3.14,7.64,3.53c-.09.73-.19,1.47-.27,2.2-.42,3.53-.83,7.05-1.33,10.49-.18,1.22-.4,2.41-.61,3.6,0-.8,0-1.46,0-1.56-.4-3.12-3-8.89-6.46-9.53a4.16,4.16,0,0,0-4.8,3.91c-.21,2.47,1.59,4.95,3.34,6.51s6,3,7.42,3.45c-.26,1.22-.51,2.43-.82,3.59-.22.79-.38,1.57-.65,2.35l-.75,2.31c-.53,1.45-1.06,2.95-1.61,4.35-.38,1-.75,1.91-1.13,2.84.19-1.21.51-3.57.52-3.77A16.06,16.06,0,0,0,78.07,426a4.69,4.69,0,0,0-.06-.92,4.16,4.16,0,0,0-5.08-3.53c-3.4.9-5.55,6.87-5.71,10,0,.19.11,2.2.21,3.48-.18-.74-.33-1.46-.52-2.22-.36-1.5-.76-3-1.18-4.6-.23-.76-.47-1.54-.7-2.32s-.55-1.58-.82-2.38c-.67-1.83-1.44-3.66-2.26-5.49,1.31-.31,6-1.5,7.83-2.93s3.84-3.76,3.82-6.24a4.16,4.16,0,0,0-4.49-4.26c-3.5.38-6.53,5.94-7.16,9,0,.19-.25,2.45-.34,3.69-.5-1.09-1-2.19-1.53-3.28-1.57-3.14-3.24-6.28-4.91-9.41-.51-1-1-1.93-1.5-2.89.47-.11,6-1.4,8.12-3,1.86-1.43,3.83-3.76,3.82-6.24a4.16,4.16,0,0,0-4.5-4.26c-3.49.38-6.52,5.94-7.16,9-.05.23-.34,3.48-.37,4.31-1.1-2.12-2.18-4.24-3.16-6.38A74.43,74.43,0,0,1,47,386.3c.22-.05,6-1.37,8.17-3C57,381.86,59,379.53,59,377a4.15,4.15,0,0,0-4.49-4.25c-3.5.37-6.53,5.94-7.17,9,0,.24-.36,3.73-.37,4.37-.05-.18-.13-.35-.18-.53A53.3,53.3,0,0,1,45,376.3c-.2-1.75-.29-3.43-.34-5.06,1.11-.14,6.16-.81,8.26-2.08s4.22-3.32,4.47-5.79a4.15,4.15,0,0,0-4-4.72c-3.52,0-7.14,5.19-8.11,8.18-.05.16-.41,1.87-.65,3.12,0-.74,0-1.5,0-2.21,0-2.66.17-5.09.34-7.25.1-1.22.22-2.33.34-3.36,1-.7,5.09-3.57,6.34-5.62s2.22-4.89,1.3-7.2A4.15,4.15,0,0,0,47.2,342c-3.12,1.61-4,7.9-3.43,11,0,.26,1.23,4.37,1.28,4.33l.06,0c-.14,1-.27,2.06-.4,3.22-.21,2.16-.43,4.59-.5,7.26a74.93,74.93,0,0,0,.21,8.62,53.39,53.39,0,0,0,1.6,9.51l0,.11c-.55-.87-2.18-3.24-2.32-3.41-2.06-2.38-7.42-5.76-10.66-4.38a4.16,4.16,0,0,0-1.84,5.91C32.43,386.26,35.29,387.34,37.61,387.67Z" style="fill:#0FF64E"></path><path d="M97.88,371.16c.06,0,1.12-4.1,1.16-4.37.43-3.11-.56-9.37-3.72-10.9a4.16,4.16,0,0,0-5.66,2.51c-.85,2.33.22,5.19,1.5,7.16C92.65,367.87,97.88,371.16,97.88,371.16Z" style="fill:#0FF64E"></path><path d="M112.45,399.26c1.61.7,5.52.61,5.52.61s-.84-2.56-.91-2.71c-.86-1.8-3.58-4.77-5.79-4.47a2.64,2.64,0,0,0-2.12,3.31C109.52,397.53,111.09,398.67,112.45,399.26Z" style="fill:#0FF64E"></path><path d="M113.81,410.61c1.66.24,5.15-.78,5.43-.86a47.06,47.06,0,0,0,2.12,5.87c.48,1.11,1,2.22,1.53,3.32-.32-.47-.6-.88-.65-.94-1.31-1.5-4.71-3.65-6.76-2.78a2.64,2.64,0,0,0-1.17,3.75c.76,1.38,2.57,2.07,4,2.28s4.5-.59,5.29-.81l.62,1.26c1,2,2,4,3,6,.33.71.63,1.41.93,2.12-.28-.42-.52-.76-.56-.81-1.31-1.51-4.71-3.65-6.76-2.78a2.65,2.65,0,0,0-1.18,3.75c.76,1.38,2.58,2.06,4,2.28a17.11,17.11,0,0,0,5.14-.77c.29.73.58,1.46.83,2.18.15.5.34,1,.47,1.47s.28,1,.41,1.49c.23,1,.47,1.93.67,2.87.15.65.27,1.27.4,1.89-.32-.7-1-2.07-1-2.17-1.06-1.69-4.1-4.33-6.26-3.78A2.64,2.64,0,0,0,122.6,439c.54,1.48,2.23,2.43,3.65,2.87s5,0,5.47,0c.21,1,.4,2.05.57,3,.37,2.11.65,4,.86,5.61h1.46c-.25-1.66-.58-3.63-1-5.85-.21-1.05-.45-2.17-.71-3.32a29,29,0,0,0,3.05-1.44,19.23,19.23,0,0,0,4.44,2.87c-.39,1-.79,1.93-1.18,2.82-.81,1.86-1.58,3.51-2.26,4.92h1.59c.58-1.3,1.22-2.77,1.89-4.41.41-1,.82-2.06,1.24-3.16.42.09,3.85.78,5.45.42s3.21-1.15,3.86-2.58a2.64,2.64,0,0,0-1.45-3.65c-2.12-.71-5.35,1.69-6.53,3.29-.07.1-.71,1.21-1.1,1.92.16-.45.33-.89.5-1.36.34-.92.65-1.84,1-2.84l.45-1.48c.15-.49.26-1,.39-1.54.29-1.21.52-2.45.73-3.7.81.29,3.68,1.29,5.17,1.19s3.35-.65,4.21-2a2.64,2.64,0,0,0-.89-3.83c-2-1-5.53.87-6.95,2.27-.08.09-1,1.21-1.47,1.84.12-.76.24-1.51.34-2.28.27-2.21.48-4.45.7-6.7l.21-2.05c.29.11,3.69,1.37,5.36,1.25,1.48-.1,3.34-.64,4.2-2a2.64,2.64,0,0,0-.89-3.83c-2-1-5.53.86-6.95,2.27-.1.1-1.39,1.72-1.7,2.15.16-1.51.33-3,.56-4.48a47.39,47.39,0,0,1,1.28-5.9c.14.06,3.68,1.39,5.39,1.27,1.48-.1,3.34-.65,4.2-2a2.64,2.64,0,0,0-.89-3.83c-2-1-5.53.87-6.94,2.27-.12.11-1.51,1.85-1.73,2.18,0-.11.05-.23.08-.34a34.24,34.24,0,0,1,2.34-5.57c.51-1,1.05-1.92,1.59-2.8.64.32,3.55,1.73,5.1,1.79s3.4-.28,4.39-1.49a2.65,2.65,0,0,0-.46-3.91c-1.86-1.23-5.6.25-7.15,1.5-.09.06-.87.84-1.44,1.42.26-.39.51-.81.76-1.18.93-1.4,1.87-2.63,2.71-3.72.49-.61.94-1.15,1.36-1.66.79,0,3.94-.1,5.32-.75s2.89-1.81,3.22-3.36a2.65,2.65,0,0,0-2.21-3.25c-2.22-.23-4.85,2.8-5.66,4.62-.07.16-.89,2.75-.85,2.75h0c-.42.47-.86,1-1.34,1.56-.87,1.07-1.84,2.28-2.8,3.67a45.92,45.92,0,0,0-2.91,4.64,34,34,0,0,0-2.49,5.59.19.19,0,0,1,0,.07c0-.65,0-2.48,0-2.62-.26-2-1.91-5.64-4.11-6a2.64,2.64,0,0,0-3,2.48c-.13,1.57,1,3.14,2.12,4.14s4.72,2.2,5,2.28a46.62,46.62,0,0,0-1.47,6.06c-.21,1.2-.39,2.4-.55,3.62,0-.57,0-1.07,0-1.14-.26-2-1.91-5.65-4.11-6.05a2.64,2.64,0,0,0-3,2.48c-.13,1.57,1,3.14,2.12,4.13s4.07,2,4.85,2.24l-.18,1.4c-.27,2.24-.52,4.47-.84,6.66-.11.77-.25,1.52-.39,2.28,0-.5,0-.93,0-1-.25-2-1.91-5.64-4.1-6.05a2.65,2.65,0,0,0-3.05,2.48c-.13,1.57,1,3.14,2.12,4.14a17,17,0,0,0,4.71,2.19c-.16.77-.32,1.54-.51,2.28-.15.5-.25,1-.42,1.48s-.32,1-.47,1.47c-.34.92-.68,1.87-1,2.76-.24.63-.48,1.21-.71,1.81.12-.77.32-2.27.32-2.4a10.35,10.35,0,0,0-1.37-5,2.83,2.83,0,0,0,0-.58,2.64,2.64,0,0,0-3.23-2.24c-2.15.57-3.52,4.36-3.62,6.35,0,.11.07,1.39.13,2.2-.11-.47-.21-.92-.32-1.4-.23-1-.48-1.9-.75-2.92l-.45-1.48c-.14-.49-.35-1-.52-1.5-.43-1.17-.92-2.33-1.43-3.49.83-.2,3.78-.95,5-1.86s2.43-2.39,2.42-4a2.64,2.64,0,0,0-2.85-2.71c-2.22.24-4.14,3.78-4.55,5.73,0,.12-.15,1.55-.21,2.34-.32-.69-.63-1.39-1-2.08-1-2-2.06-4-3.11-6-.33-.61-.64-1.23-1-1.84.3-.06,3.83-.88,5.16-1.9,1.18-.91,2.43-2.39,2.42-4a2.65,2.65,0,0,0-2.85-2.71c-2.22.24-4.15,3.78-4.55,5.73,0,.15-.22,2.21-.24,2.73-.7-1.34-1.38-2.69-2-4a45.94,45.94,0,0,1-2.18-5.63c.14,0,3.83-.87,5.19-1.91,1.18-.91,2.43-2.39,2.42-4a2.63,2.63,0,0,0-2.85-2.7c-2.22.24-4.14,3.77-4.55,5.72,0,.15-.23,2.37-.23,2.78,0-.12-.09-.23-.12-.34a34.42,34.42,0,0,1-1.13-5.94c-.12-1.1-.18-2.17-.21-3.21.7-.08,3.91-.51,5.24-1.32s2.68-2.1,2.84-3.67a2.64,2.64,0,0,0-2.54-3c-2.23,0-4.53,3.3-5.14,5.19,0,.11-.26,1.19-.41,2,0-.46,0-1,0-1.4,0-1.68.11-3.23.22-4.6.07-.77.14-1.48.22-2.13.65-.44,3.23-2.27,4-3.57s1.41-3.1.83-4.57a2.65,2.65,0,0,0-3.64-1.49c-2,1-2.5,5-2.17,7,0,.17.78,2.77.81,2.75l0,0c-.09.63-.17,1.31-.25,2-.14,1.37-.28,2.91-.32,4.61a48.9,48.9,0,0,0,.13,5.47,34.05,34.05,0,0,0,1,6l0,.07c-.35-.55-1.39-2.06-1.48-2.16-1.3-1.51-4.71-3.65-6.76-2.78a2.64,2.64,0,0,0-1.17,3.75C110.52,409.71,112.33,410.39,113.81,410.61Z" style="fill:#0FF64E"></path><path d="M152.06,400.12s.71-2.6.74-2.77c.27-2-.36-6-2.37-6.92a2.65,2.65,0,0,0-3.59,1.59c-.54,1.48.15,3.3,1,4.55C148.74,398,152.06,400.12,152.06,400.12Z" style="fill:#0FF64E"></path></g><g id="freepik--character-1--inject-98"><path d="M162,87.45s-9.69-4.42-12.41-2.21-1.19,3.06-1.19,3.06-11.23-2.89-18.88,3.23-4.93,8.16-4.93,8.16-6.8,10.89-4.42,13.78,3.23,2.21,3.23,2.21-4.42,6.63-1.87,9.69,4.59,1.36,4.59,1.36-4.42,8.16-.34,10a7.32,7.32,0,0,0,7.31-.68s-1.87,6.63,1.36,9.86,5.11,2.22,5.11,2.22.17,4.93,10,6.63,11.73,2.21,15.81.17a67.77,67.77,0,0,0,6.63-3.74s-1.53,2.38,2.72,1.19a13.66,13.66,0,0,0,6.12-3.23s2.22,5.61,8.68,1.19,4.59-8.85,4.59-8.85,4.93-.34,5.44-7.31-1.19-10.37-1.19-10.37,7.82-7.14,2.89-17-9.86-12.93-10.71-13.1-2.38-2.89-6.12-5.27S168.8,82,162,87.45Z" style="fill:#263238;stroke:#263238;stroke-linecap:round;stroke-linejoin:round"></path><path d="M176.28,132s4.25-1.87,3.57,2.21-5.1,6.29-5.1,6.29Z" style="fill:none;stroke:#263238;stroke-linecap:round;stroke-linejoin:round"></path><path d="M142,129.45s-4.25-1.87-3.57,2.21,5.1,6.29,5.1,6.29Z" style="fill:none;stroke:#263238;stroke-linecap:round;stroke-linejoin:round"></path><path d="M143.17,425.21s2.76,14.14,2.15,19.37-1.23,11.68-.62,14.75,5.84,8.61,12.91,3.69,1.23-12.91.31-24.9.62-38.73.62-38.73l-.93-7.69Z" style="fill:#d6d6d6;stroke:#263238;stroke-linecap:round;stroke-linejoin:round"></path><path d="M174.75,228.41s12.68,5.59,15.76,32.33-3.69,170.31-3.69,170.31h-45.5Z" style="fill:#263238;stroke:#263238;stroke-linecap:round;stroke-linejoin:round"></path><path d="M145.89,468.57s-2.42,2.64,4,2.86,12.11-1.1,15.41-4.62,2.21-11.24,1.33-14.76-1.33-5.07-1.33-5.07-.66,5.95-7.26,11.68S145.89,468.57,145.89,468.57Z" style="fill:#263238;stroke:#263238;stroke-linecap:round;stroke-linejoin:round"></path><path d="M178.66,301.36s1.59,20.95-.39,34.61-3.74,17.18-1.76,26.87.22,25.55-3.75,39-6.38,29.07-6.6,34.8,2,21.15-.44,26-7.49,7.05-13.22,7.05-7.49-.66-5.95-4.4,2.43-3.09,6.17-17.41,2.86-24.89,3.08-34.8-.66-21.58-.66-21.58L177,294.12Z" style="fill:#d6d6d6;stroke:#263238;stroke-linecap:round;stroke-linejoin:round"></path><path d="M166.15,436.71a23.89,23.89,0,0,1-11.25-.13q-.33,2.69-.89,5.58c4.12,2.09,9,1.36,12.33.39C166.2,440.21,166.1,438.16,166.15,436.71Z" style="fill:#263238;stroke:#263238;stroke-linecap:round;stroke-linejoin:round"></path><path d="M150.25,456.55a36.09,36.09,0,0,1-2.28,5.78c4.38-.53,12-1,17.34,1,.14-.24.28-.48.41-.73a13.53,13.53,0,0,0,1-4.73C163.16,456.51,156.58,454.68,150.25,456.55Z" style="fill:#263238;stroke:#263238;stroke-linecap:round;stroke-linejoin:round"></path><path d="M234.2,252.61s27.21,9.9,28.12,10.39,3,4.81,3.75,7,3.82,4.18,6.46,6.38,2.21,5.16,4,4.55,2-.7,1.36-2.48a31.59,31.59,0,0,0-2.86-5.09s7.13,5.37,8.39,7.07,4.09,4.28,5.43,2.73,2.1-2.37-.39-7.64-5.49-8.21-12.7-14.23a146.05,146.05,0,0,0-16.19-11.89c-3.94-2.5-15.87-9.74-15.87-9.74S238.86,247.88,234.2,252.61Z" style="fill:#d6d6d6;stroke:#263238;stroke-linecap:round;stroke-linejoin:round"></path><path d="M234.2,252.61c4.66-4.73,9.49-13,9.49-13s3.83,2.32,7.87,4.79L243,255.82Z" style="fill:#fff;stroke:#263238;stroke-linecap:round;stroke-linejoin:round"></path><path d="M146.53,163.8a111.77,111.77,0,0,1-21.77-6.63c-9.86-4.42-13.26-2-17.17,6.63s-12.24,34.35-9.69,38.43,9.18,10.2,14.28,10,10.2-9,10.2-9,4.08,21.42,4.42,22.61-15.81,17-18,35,.85,104.23.85,104.23l2.72,66,38.77,1.7,11.73-61.38,15.81-70.06s7.15-33.33,6-46.08-9.87-26.87-9.87-26.87,8.34-17,10.21-23.63,1.19-2.89,1.19-2.89,10.71,16.66,20.74,29.07,23.13,23.89,24.66,23.55,11.9-7.73,12.92-12,.51-7.83-2.72-12.25-14.45-20.4-27.21-39.62S204.68,164,193.8,161.08,170,164.31,168,164.82,146.53,163.8,146.53,163.8Z" style="fill:#263238;stroke:#263238;stroke-linecap:round;stroke-linejoin:round"></path><path d="M165.57,185.73c6.87-12.95,8.09-20.33,8.3-23-3,1-5.18,1.89-5.92,2.08-2,.51-21.42-1-21.42-1s-3.28-.61-7.81-1.83c3.53,11.71,15.46,44,15.46,44S156.73,202.4,165.57,185.73Z" style="fill:#fff;stroke:#263238;stroke-linecap:round;stroke-linejoin:round"></path><path d="M214.54,190.66c-12.75-19.21-9.86-26.69-20.74-29.58-5.47-1.46-11.46-.63-16.32.61,0,2.78,0,7.95.16,9.42.17,2,7.49,32.14,7.49,32.14l.14.44c1.48-5.1.88-1.8.88-1.8s10.71,16.66,20.74,29.07,23.13,23.89,24.66,23.55,11.9-7.73,12.92-12,.51-7.83-2.72-12.25S227.3,209.88,214.54,190.66Z" style="fill:#fff;stroke:#263238;stroke-linecap:round;stroke-linejoin:round"></path><path d="M124.76,157.17c-9.86-4.42-13.26-2-17.17,6.63s-12.24,34.35-9.69,38.43,9.18,10.2,14.28,10c4.49-.15,9-7,10-8.66l8.93-43.95C129,158.92,126.83,158.09,124.76,157.17Z" style="fill:#fff;stroke:#263238;stroke-linecap:round;stroke-linejoin:round"></path><path d="M190.06,199.68s19,20.4,33.83,28.39" style="fill:none;stroke:#263238;stroke-linecap:round;stroke-linejoin:round"></path><path d="M147.72,148.67l-2.21,17.17a10.63,10.63,0,0,0,8.5,5.95,20.22,20.22,0,0,0,12.41-2.55c.85-.51,4.25-3.74,4.25-3.74l-2.89-15.64S155,153.43,147.72,148.67Z" style="fill:#d6d6d6;stroke:#263238;stroke-linecap:round;stroke-linejoin:round"></path><path d="M167.78,149.86s-12.75,3.57-20.06-1.19c0,0,3.36,18.87,18.7,20.57.85-.51,4.25-3.74,4.25-3.74Z" style="fill:#263238;stroke:#263238;stroke-linecap:round;stroke-linejoin:round"></path><path d="M167.44,112.45a62.41,62.41,0,0,1-13.09,7.31c-7.82,3.23-12.92,3.4-12.92,3.4s1.53,19.21,2.89,23.46,8.5,10.55,12.41,11.4,13.26-5.61,15.47-9.86,6-24,6-24S169.14,115.68,167.44,112.45Z" style="fill:#d6d6d6;stroke:#263238;stroke-linecap:round;stroke-linejoin:round"></path><path d="M164,130.47a4.51,4.51,0,0,1,6,.85" style="fill:none;stroke:#263238;stroke-linecap:round;stroke-linejoin:round"></path><path d="M163,124s5.95-2.72,9,2.72" style="fill:none;stroke:#263238;stroke-linecap:round;stroke-linejoin:round"></path><line x1="156.9" y1="138.63" x2="159.11" y2="140.33" style="fill:none;stroke:#263238;stroke-linecap:round;stroke-linejoin:round"></line><path d="M154.86,142.37s2.89,2.89,5.27,2.21a50.86,50.86,0,0,0,5.44-2s-2.38,4.6-5.95,5.28S154.86,142.37,154.86,142.37Z" style="fill:#263238;stroke:#263238;stroke-linecap:round;stroke-linejoin:round"></path><path d="M136.49,161.42l4.26-8.16s2.21-13.61,2-14.29,5.44-13.43,5.44-13.43l1.53-1.19s1.87-3.06,2.72-1.87a2.57,2.57,0,0,1,.34,2.38s2-1.53,2.72.17-.51,3.57-.68,4.76-1.19,4.76-1.19,4.76,4.42-6.12,4.93-6,1.87.68.68,2.55-4.76,8.5-5.1,9.35-2,10.72-4.59,14.29a18.93,18.93,0,0,1-4.42,4.76l-3.74,9.18-6.13-5.44Z" style="fill:#d6d6d6;stroke:#263238;stroke-linecap:round;stroke-linejoin:round"></path><line x1="149.76" y1="124.35" x2="145.34" y2="135.57" style="fill:none;stroke:#263238;stroke-linecap:round;stroke-linejoin:round"></line><line x1="152.82" y1="124.86" x2="148.57" y2="136.25" style="fill:none;stroke:#263238;stroke-linecap:round;stroke-linejoin:round"></line><polygon points="135.98 160.4 145.85 168.22 139.72 178.42 130.54 167.88 135.98 160.4" style="fill:#fff;stroke:#263238;stroke-linecap:round;stroke-linejoin:round"></polygon><path d="M130.54,167.88s-2.72-.68-3.91.17S105.89,188.28,103.85,190s-6.29,8.34-5.95,12.25,2.55,9.86,11.9,11.9,12.07-1.53,16.83-9.35,11.05-16.84,12.42-19.56a8.89,8.89,0,0,0,.68-6.8C139.22,176.21,130.54,167.88,130.54,167.88Z" style="fill:#fff;stroke:#263238;stroke-linecap:round;stroke-linejoin:round"></path><line x1="186.15" y1="201.89" x2="191.76" y2="180.46" style="fill:#fff;stroke:#263238;stroke-linecap:round;stroke-linejoin:round"></line></g><g id="freepik--character-2--inject-98"><path d="M301.55,283.62s-2.5-9.15-3.74-13.1-5-2.49-7.49-2.49-9.14-.42-9.14-.42c-.21,2.91,3.12,3.74,4.57,3.53s6,1,6,1l2.08,2.29s-.83.62-3.95-.62-5.82-2.91-7.9-1.46.21,2.7,2.91,3.33,4.16,2.49,5.4,4.36.83,5,3.12,6.45,3.74,2.28,3.74,2.28l2.7,6,5-5Z" style="fill:#b2b2b2;stroke:#263238;stroke-linecap:round;stroke-linejoin:round"></path><path d="M304.67,287.56l-8.73,7.07L309,313.75s1.66,4.37,3.74,4.79,2.7-.63,3.33-1S319,297.33,319,297.33Z" style="fill:#0FF64E;stroke:#263238;stroke-linecap:round;stroke-linejoin:round"></path><path d="M314,193.22s-10.17,6.58-9.17,10.57,3.79,4.18,3.79,4.18-3,11.37-1,15.35,3.59,4,4.39,6.78-1.8,8.37-.8,9.77,6.18.6,6.18.6a120.46,120.46,0,0,0,8.18,9.37c2.79,2.59,3.58,2.79,7,.6s2.59-1.2,2.59-1.2l1.4,6.38,20.53-16.75s-1.39-7-2.59-13,6-7.57-1-22.92S324.38,183.65,314,193.22Z" style="fill:#b2b2b2;stroke:#263238;stroke-linecap:round;stroke-linejoin:round"></path><path d="M329.16,251.63a24.2,24.2,0,0,0,5.19-5,28.7,28.7,0,0,0,3.19-6.18s-.2,4-.6,7a22.87,22.87,0,0,1-1,4.58l-.8-2.79Z" style="fill:#263238;stroke:#263238;stroke-linecap:round;stroke-linejoin:round"></path><path d="M314,193.22s-10.17,6.58-9.17,10.57,3.79,4.18,3.79,4.18-.2,1.2,3.59-.2c2.46-.9,4.54-2.64,7-3.51,4-1.39,6.31,2.43,5.75,5.71-1,5.78-1.4,8.37,1.59,9s4.79.79,4.79.79,1,2.6,2.59.2-1-3.58,3-4,6.58,6.58,6.58,6.58,2.4,4.79,10.85,1.52c.35-4.64,5.31-7.43-.88-21.06C346.51,187.64,324.38,183.65,314,193.22Z" style="fill:#263238;stroke:#263238;stroke-linecap:round;stroke-linejoin:round"></path><path d="M319.27,227.71c.53,1,.52,2.09,0,2.36s-1.4-.33-1.93-1.36-.51-2.09,0-2.37S318.75,226.68,319.27,227.71Z" style="fill:#263238"></path><path d="M343.52,222.53s1.19,3.58-.8,6-5.58,1.39-5.58,1.39" style="fill:none;stroke:#263238;stroke-linecap:round;stroke-linejoin:round"></path><path d="M321.39,239.87a9,9,0,0,0,6.18-7.18" style="fill:none;stroke:#263238;stroke-linecap:round;stroke-linejoin:round"></path><path d="M312.82,224.92s-.2-4.19,6.18-2.39" style="fill:none;stroke:#263238;stroke-linecap:round;stroke-linejoin:round"></path><path d="M268.5,422.26l21.41,25.35s2.08,2.71,6.44,0a12.54,12.54,0,0,0,5.41-7.06l-17.05-27Z" style="fill:#b2b2b2;stroke:#263238;stroke-linecap:round;stroke-linejoin:round"></path><path d="M302.17,437s-7.48,5.41-10.39,6.45-7.28-4.16-8.94-2.29-6.44,10.19-7.07,11.22-12.68,6.66-14.75,7.07-2.5,1.87-2.08,3.74,2.91,2.5,3.95,2.5,16.42-.42,20.37-.63,10.39-3.32,19.74-5.19,10.19-7.07,9.15-10.4S302.17,437,302.17,437Z" style="fill:#fff;stroke:#263238;stroke-linecap:round;stroke-linejoin:round"></path><path d="M322.75,369.25s3.53,39.5,7.27,60.9,7.28,36.17,13.1,36.38,30.35-6,30.35-6l44.89-18.71-5.19-19.33a181.12,181.12,0,0,1-26.61,6.65C370.35,432,364.94,431,364.94,431l2.71-47.6,2.49-13.1-39.28-9.14Z" style="fill:#263238;stroke:#263238;stroke-linecap:round;stroke-linejoin:round"></path><path d="M364.94,431s-3.95,13.3-5,15.38" style="fill:none;stroke:#6e6e6e;stroke-linecap:round;stroke-linejoin:round"></path><path d="M365.15,434.1s-.62,7.28-2.49,11.64" style="fill:none;stroke:#6e6e6e;stroke-linecap:round;stroke-linejoin:round"></path><line x1="351.85" y1="375.7" x2="363.9" y2="382.14" style="fill:none;stroke:#263238;stroke-linecap:round;stroke-linejoin:round"></line><line x1="341.46" y1="374.03" x2="353.51" y2="379.44" style="fill:none;stroke:#263238;stroke-linecap:round;stroke-linejoin:round"></line><path d="M309.86,343.89s-28.06,7.69-47.6,14.55-26.4,13.93-25.36,17.26,25,53.83,25,53.83l26.6-12.47s-13.51-28.68-13.92-30.14-1.67-5-1.67-5,38.46.63,57-4.16,25.77-9.56,25.77-9.56l-32.43-23.07A28.9,28.9,0,0,0,309.86,343.89Z" style="fill:#263238;stroke:#263238;stroke-linecap:round;stroke-linejoin:round"></path><line x1="272.86" y1="381.93" x2="254.78" y2="377.15" style="fill:none;stroke:#6e6e6e;stroke-linecap:round;stroke-linejoin:round"></line><path d="M270.16,383s-12.05,3.12-16.84,1.87" style="fill:none;stroke:#6e6e6e;stroke-linecap:round;stroke-linejoin:round"></path><path d="M270.58,385.67s-5.2,5.2-8.53,7.07" style="fill:none;stroke:#6e6e6e;stroke-linecap:round;stroke-linejoin:round"></path><path d="M357.05,236.43s-15.18,10.39-26.19,22.87-20,35.33-19.75,43.65,1.45,36.58,1.66,37.2-2.28-.62-3.32,1.25a10.76,10.76,0,0,0-1.25,3.33s8.73,15.58,24.32,21.2,24.94,9.14,31,9.35a83.11,83.11,0,0,0,10.18-.21s2.29-23.69,1.87-32.42-7.06-13.72-6.65-18.29,3.54-49.47,3.54-49.47S364.11,242.67,357.05,236.43Z" style="fill:#0FF64E;stroke:#263238;stroke-linecap:round;stroke-linejoin:round"></path><path d="M333.56,339.53s20.37-3.53,27.43-10" style="fill:none;stroke:#263238;stroke-linecap:round;stroke-linejoin:round"></path><path d="M349.41,341.09c-1.23.65-2.57,1.31-4,2" style="fill:none;stroke:#263238;stroke-linecap:round;stroke-linejoin:round"></path><path d="M362.24,331.63s-2.68,3.41-9.45,7.53" style="fill:none;stroke:#263238;stroke-linecap:round;stroke-linejoin:round"></path><path d="M332.31,262c.83-.42,4.78,0,4.78,0s18.48-15.9,23.75-20.17a20.08,20.08,0,0,0-3.79-5.4s-15.18,10.39-26.19,22.87c-6.62,7.48-12.48,18.71-16.06,28.29,1.44-2,3.27-4.56,5-6.88,3.32-4.37,15.8-13.1,14.55-14.55S331.48,262.41,332.31,262Z" style="fill:#0FF64E;stroke:#263238;stroke-linecap:round;stroke-linejoin:round"></path><polygon points="416.49 435.35 433.12 428.91 429.59 416.85 409.84 423.92 416.49 435.35" style="fill:#b2b2b2;stroke:#263238;stroke-linecap:round;stroke-linejoin:round"></polygon><path d="M421.27,431s11.85,11.64,13.1,15.79,1.66,9.56.41,12.89.63,3.12,3.12,3.33,5.82-2.71,7.48-7.7,2.5-6.65.84-11.84-5-11-5.41-19.33.83-12.68-3.95-13.31-12.68,3.75-13.92,5.41,4.36,4.16,4.15,7.27S420.44,428.28,421.27,431Z" style="fill:#fff;stroke:#263238;stroke-linecap:round;stroke-linejoin:round"></path><path d="M286.79,285.07s-6-7.07-8.52-10.81-.63-3.95-4.78-6.44-8.73-3.74-10.19-6.24-3.95-2.91-2.28.63a46.85,46.85,0,0,0,4.78,7.48l-7.28-.83s-2.29,1.45,0,3.53a31.7,31.7,0,0,1,3.12,3.12s4.16,9.56,8.52,10.39,5.61.42,5.61.42l6.24,6Z" style="fill:#b2b2b2;stroke:#263238;stroke-linecap:round;stroke-linejoin:round"></path><path d="M365.36,278.21a92.58,92.58,0,0,1-5,16.21c-3.53,8.53-27,44.07-30.14,45.52s-4.36-2.49-12.89-8.73-39.28-36.37-39.28-36.37l8.52-12.68L323,306.9s-.83-2.08.62-2.71a9.85,9.85,0,0,0,2.7-1.87,41.09,41.09,0,0,1,2.5-12.68c2.49-6.86,4.36-10.81,4.36-10.81s3.95-12.88,7.48-18.08,8.11-7.48,14.35-7.69" style="fill:#0FF64E;stroke:#263238;stroke-linecap:round;stroke-linejoin:round"></path><path d="M340.91,291.39a12.1,12.1,0,0,0,6.16,2.62" style="fill:none;stroke:#263238;stroke-linecap:round;stroke-linejoin:round"></path><path d="M333.77,282.16a29.52,29.52,0,0,0,4.1,6.31" style="fill:none;stroke:#263238;stroke-linecap:round;stroke-linejoin:round"></path><path d="M338.78,297.46a12.83,12.83,0,0,0,3.09,3.2" style="fill:none;stroke:#263238;stroke-linecap:round;stroke-linejoin:round"></path><path d="M332.73,286.94a81.42,81.42,0,0,0,4.35,8" style="fill:none;stroke:#263238;stroke-linecap:round;stroke-linejoin:round"></path><path d="M323,306.9a17.68,17.68,0,0,1,2.7,6.44" style="fill:none;stroke:#263238;stroke-linecap:round;stroke-linejoin:round"></path><path d="M331.36,314.67a10.39,10.39,0,0,1,.12,2.41" style="fill:none;stroke:#263238;stroke-linecap:round;stroke-linejoin:round"></path><path d="M327.53,305.44a32.08,32.08,0,0,1,2.84,5.66" style="fill:none;stroke:#263238;stroke-linecap:round;stroke-linejoin:round"></path></g>
</svg>